# xmcd
#
# Track frame offsets:
#	150
#	13799
#	29561
#	53917
#	67177
#	83925
#	104850
#	118563
#	139879
#	160509
#	182523
#
# Disc length: 2656 seconds
#
# Revision: 4294967295
# Processed by: cddbd v1.5.2PL0 Copyright (c) Steve Scherf et al.
# Submitted via: EZCDAudioConverter 8.2.2.1
#
DISCID=9a0a5e0b
DTITLE=Zac Brown Band - Uncaged
DYEAR=2012
DGENRE=Country
TTITLE0=Zac Brown Band - Jump Right In
TTITLE1=Zac Brown Band - Uncaged
TTITLE2=Zac Brown Band - Goodbye In Her Eyes
TTITLE3=Zac Brown Band - The Wind
TTITLE4=Zac Brown Band - Island Song
TTITLE5=Zac Brown Band - Sweet Annie
TTITLE6=Zac Brown Band - Natural Disaster
TTITLE7=Zac Brown Band Feat. Trombone Shorty - Overnight
TTITLE8=Zac Brown Band - Lance's Song
TTITLE9=Zac Brown Band Feat. Amos Lee - Day That I Die
TTITLE10=Zac Brown Band - Last But Not Least
EXTD=
EXTT0=
EXTT1=
EXTT2=
EXTT3=
EXTT4=
EXTT5=
EXTT6=
EXTT7=
EXTT8=
EXTT9=
EXTT10=
PLAYORDER=
